<svg id="Layer_1" data-name="Layer 1" xmlns="http://www.w3.org/2000/svg" viewBox="0 0 360 171.67"><defs><style>.cls-1,.cls-3{fill:#fff;}.cls-2,.cls-3{stroke:#000;stroke-miterlimit:10;}</style></defs><rect x="-30.21" y="-19.23" width="420.42" height="214.58"/><path class="cls-1" d="M234.85,58c2.47.7,4.62,1.22,6.72,1.92,21.48,7.26,29.08,34.51,13.55,52.43-6.53,7.53-15,11-24.8,11.36-2.93.11-5.86,0-8.79,0H132.25a39.58,39.58,0,0,1-15.8-2.81c-12.92-5.5-21.22-19.67-19.57-33.46a32.92,32.92,0,0,1,27.37-29c5.6-.91,10.94-.13,16.64,1.51.34-1,.72-1.91,1-2.87a32.81,32.81,0,0,1,51.92-17.14c1.46,1.14,2.79,2.46,4.41,3.9,6.37-7.91,14.38-11,24-7.42C232,40.11,235.06,48.3,234.85,58ZM178.52,84c7.87-6.07,15.49-11.38,22.75-17.08-5.75-8.75-19.24-15.37-33.15-10.34a29.11,29.11,0,0,0,4.64,56c12,2,25.19-3.81,29-12.66Zm56.54-4a4.05,4.05,0,1,0,4.31,4A4.14,4.14,0,0,0,235.06,80ZM218,88.06a4,4,0,0,0,4.2-3.81A3.94,3.94,0,0,0,218.52,80a4.06,4.06,0,0,0-4.42,4A4.13,4.13,0,0,0,218,88.06ZM205.2,83.84a4,4,0,0,0-4.11-3.9,4,4,0,0,0-4,4,4.06,4.06,0,1,0,8.11-.13Z"/><path class="cls-2" d="M178.52,84l23.2,16c-3.77,8.85-17,14.69-29,12.66a29.11,29.11,0,0,1-4.64-56c13.91-5,27.4,1.59,33.15,10.34C194,72.61,186.39,77.92,178.52,84ZM175.21,69.5a3.91,3.91,0,0,0-3.83-3.8,3.81,3.81,0,0,0-3.59,3.66,3.75,3.75,0,0,0,3.8,3.77A3.82,3.82,0,0,0,175.21,69.5Z"/><path class="cls-2" d="M235.06,80a4.05,4.05,0,1,1,.35,8.1,4.05,4.05,0,1,1-.35-8.1Z"/><path class="cls-2" d="M218,88.06a4.13,4.13,0,0,1-3.91-4.14,4.06,4.06,0,0,1,4.42-4,3.94,3.94,0,0,1,3.69,4.29A4,4,0,0,1,218,88.06Z"/><path class="cls-2" d="M205.2,83.84a4.06,4.06,0,1,1-8.11.13,4,4,0,0,1,4-4A4,4,0,0,1,205.2,83.84Z"/><path class="cls-3" d="M175.21,69.5a3.82,3.82,0,0,1-3.62,3.63,3.75,3.75,0,0,1-3.8-3.77,3.81,3.81,0,0,1,3.59-3.66A3.91,3.91,0,0,1,175.21,69.5Z"/></svg>